<svg width="24" height="24" viewBox="0 0 24 24" fill="none" xmlns="http://www.w3.org/2000/svg">
<circle cx="12" cy="12" r="12" fill="#32DDE0"/>
<path fill-rule="evenodd" clip-rule="evenodd" d="M19.5975 8.88962C19.2014 8.59108 18.8172 8.27489 18.4113 7.99126C16.4566 6.62548 14.3391 5.59488 12.1028 4.81455C12.034 4.79054 11.9425 4.79837 11.8717 4.82238C10.756 5.20014 9.67508 5.66565 8.61953 6.19324C7.13286 6.93632 5.72128 7.80308 4.42669 8.86323C4.32599 8.94568 4.30258 9.02451 4.33108 9.14962C4.6347 10.4831 5.0896 11.7598 5.69158 12.9819C5.70302 13.0051 5.72114 13.0248 5.75886 13.0785C5.75942 11.6283 6.1957 10.3811 7.15075 9.3489C8.106 8.31637 9.29288 7.79852 10.7114 7.75445C10.5021 7.53927 10.3167 7.34864 10.1094 7.1355C10.2021 7.11959 10.2602 7.0994 10.3175 7.10137C10.8124 7.11844 11.3113 7.10389 11.8009 7.16611C13.2344 7.34823 14.5524 7.88035 15.7981 8.61686C15.9371 8.69906 15.9891 8.80105 15.9604 8.94908C15.9373 9.06769 15.9791 9.12882 16.0809 9.1819C16.4651 9.38231 16.8069 9.64251 17.0963 9.97181C17.669 10.6234 17.8001 11.551 17.4251 12.3395C17.2205 12.7697 16.9029 13.0789 16.4575 13.2399C16.4091 13.2573 16.3553 13.259 16.2857 13.2711C16.3027 13.208 16.311 13.1726 16.3217 13.138C16.4363 12.767 16.2753 12.4633 15.9008 12.3956C15.5003 12.3231 15.1467 12.4291 14.8878 12.7722C14.6837 13.0425 14.5817 13.3559 14.576 13.6934C14.5663 14.2557 14.8435 14.6571 15.2971 14.9411C15.7161 15.2033 16.1846 15.3002 16.6655 15.3568C16.7867 15.3711 16.8562 15.338 16.9278 15.2402C18.2774 13.3971 19.1528 11.3329 19.6715 9.10055C19.6937 9.005 19.6723 8.94598 19.5975 8.88962Z" fill="#0A0B09"/>
<mask id="mask0" mask-type="alpha" maskUnits="userSpaceOnUse" x="0" y="0" width="24" height="24">
<path fill-rule="evenodd" clip-rule="evenodd" d="M0.481934 0.496948H23.503V23.52H0.481934V0.496948Z" fill="white"/>
</mask>
<g mask="url(#mask0)">
<path fill-rule="evenodd" clip-rule="evenodd" d="M14.8316 9.2398C14.8961 9.17025 14.9732 9.15781 15.0614 9.17973C15.1195 9.19418 15.1786 9.20461 15.2372 9.21686C15.291 9.22805 15.3447 9.23924 15.3985 9.25043C14.7712 8.90622 14.096 8.78016 13.3945 8.77039C13.3877 8.78197 13.3809 8.79359 13.374 8.80521C13.4312 8.85865 13.4848 8.91645 13.546 8.96481C13.7683 9.14054 14.0245 9.24789 14.2889 9.34553C14.5001 9.42359 14.6767 9.40715 14.8316 9.2398Z" fill="#0A0B09"/>
<path fill-rule="evenodd" clip-rule="evenodd" d="M20.1201 10.2379C19.5029 12.4114 18.5403 14.4106 17.0898 16.1571C15.7399 17.7826 14.0782 18.9669 12.0761 19.6602C12.0112 19.6827 11.9246 19.6794 11.8588 19.6568C10.1301 19.0616 8.64403 18.0907 7.39063 16.7611C6.18776 15.4852 5.28085 14.0188 4.59315 12.4118C4.13522 11.3417 3.78361 10.2382 3.55037 9.09678C3.51776 8.93722 3.54678 8.8379 3.67719 8.72917C5.09392 7.54822 6.65635 6.59876 8.30836 5.78962C9.44921 5.23085 10.6199 4.74513 11.8318 4.36233C11.9198 4.33454 12.0326 4.33424 12.12 4.36319C14.821 5.25888 17.3458 6.4995 19.6232 8.21978C19.8754 8.41024 20.1207 8.60997 20.3665 8.80859C20.3992 8.83496 20.4165 8.88028 20.4447 8.9225C20.3355 9.36864 20.2423 9.80743 20.1201 10.2379ZM11.9915 0.496948C5.63388 0.496948 0.47998 5.65084 0.47998 12.0085C0.47998 18.3661 5.63388 23.52 11.9915 23.52C18.3492 23.52 23.503 18.3661 23.503 12.0085C23.503 5.65084 18.3492 0.496948 11.9915 0.496948Z" fill="#0A0B09"/>
</g>
</svg>
