<svg width="228" height="63" viewBox="0 0 228 63" fill="none" xmlns="http://www.w3.org/2000/svg">
<path d="M16.1 32.66V4.6H27.6V0.459999H0V4.6H11.5V32.66H16.1Z" fill="white"/>
<path d="M43.9645 33.12C52.7045 33.12 59.1445 26.91 59.1445 16.56C59.1445 6.21 52.7045 0 43.9645 0C35.2245 0 28.7845 6.21 28.7845 16.56C28.7845 26.91 35.2245 33.12 43.9645 33.12ZM43.7345 28.98C37.7545 28.98 33.3845 24.38 33.3845 16.56C33.3845 8.74 37.7545 4.14 43.7345 4.14H44.1945C50.1745 4.14 54.5445 8.74 54.5445 16.56C54.5445 24.38 50.1745 28.98 44.1945 28.98H43.7345Z" fill="white"/>
<path d="M92.2099 32.66L79.0539 13.616L91.9799 0.459999H85.9999L70.1299 16.422V0.459999H65.5299V32.66H70.1299V22.724L75.7419 17.02L86.4599 32.66H92.2099Z" fill="white"/>
<path d="M120.536 32.66V28.52H101.216V18.17H117.316V14.03H101.216V4.6H120.076V0.459999H96.6158V32.66H120.536Z" fill="white"/>
<path d="M143.874 28.336L134.26 0.459999H126.624V32.66H131.224V4.508L140.93 32.66H146.818L156.294 4.37V32.66H160.894V0.459999H153.304L143.874 28.336Z" fill="white"/>
<path d="M196.627 32.66L183.977 0.459999H178.089L165.347 32.66H170.039L173.259 24.38H188.623L191.843 32.66H196.627ZM180.941 4.692L187.013 20.24H174.869L180.941 4.692Z" fill="white"/>
<path d="M227.829 32.66L214.673 13.616L227.599 0.459999H221.619L205.749 16.422V0.459999H201.149V32.66H205.749V22.724L211.361 17.02L222.079 32.66H227.829Z" fill="white"/>
<path d="M7.59095 58.3203C11.2963 58.3203 13.2792 56.2573 13.4795 53.5133H10.7756C10.4751 55.0756 9.39356 55.9168 7.6911 55.9168H7.49081C5.18749 55.9168 3.58517 54.1142 3.58517 51.1099C3.58517 48.1055 5.18749 46.3029 7.49081 46.3029H7.6911C9.39356 46.3029 10.4751 47.1842 10.7756 48.7064H13.4795C13.2792 46.0626 11.2963 43.8995 7.59095 43.8995C3.28474 43.8995 0.881272 46.8037 0.881272 51.1099C0.881272 55.4161 3.28474 58.3203 7.59095 58.3203ZM20.0076 58.3203C23.012 58.3203 25.0148 56.1171 25.0148 53.1128C25.0148 50.1084 23.012 47.9053 20.0076 47.9053C17.0033 47.9053 15.0004 50.1084 15.0004 53.1128C15.0004 56.1171 17.0033 58.3203 20.0076 58.3203ZM19.9275 56.2172C18.5255 56.2172 17.6242 55.0756 17.6242 53.1128C17.6242 51.1499 18.5255 50.0083 19.9275 50.0083H20.0877C21.4898 50.0083 22.3911 51.1499 22.3911 53.1128C22.3911 55.0756 21.4898 56.2172 20.0877 56.2172H19.9275ZM29.9887 58.12V52.8123H33.8944C34.8958 52.8123 35.1963 53.1128 35.1963 54.1142V58.12H37.9002V53.4332C37.9002 52.1714 37.2392 51.4504 35.717 51.4504C37.3193 50.8495 38.1004 49.6878 38.1004 47.9053C38.1004 45.7021 36.1977 44.0998 33.7942 44.0998H27.2848V58.12H29.9887ZM29.9887 46.5032H32.9931C34.5954 46.5032 35.3965 47.1241 35.3965 48.426C35.3965 49.7279 34.5954 50.4489 32.9931 50.4489H29.9887V46.5032ZM51.7725 58.12V55.7165H43.6608V52.1314H50.3705V49.7279H43.6608V46.5032H51.5722V44.0998H40.9569V58.12H51.7725ZM69.7086 58.12V55.7165H61.5969V52.1314H68.3065V49.7279H61.5969V46.5032H69.5083V44.0998H58.8929V58.12H69.7086ZM77.7428 55.2759L73.5968 44.0998H70.5725L75.9402 58.12H79.4453L84.6928 44.0998H81.7286L77.7428 55.2759ZM97.2874 58.12V55.7165H89.1757V52.1314H95.8854V49.7279H89.1757V46.5032H97.0871V44.0998H86.4718V58.12H97.2874ZM108.727 54.3746L103.219 44.0998H99.7136V58.12H102.417V47.8051L107.925 58.12H111.43V44.0998H108.727V54.3746ZM120.985 58.12V46.5032H125.852V44.0998H113.434V46.5032H118.281V58.12H120.985Z" fill="url(#paint0_linear)"/>
<defs>
<linearGradient id="paint0_linear" x1="56.4451" y1="62.1489" x2="-38.9653" y2="13.7154" gradientUnits="userSpaceOnUse">
<stop stop-color="#B5FF00"/>
<stop offset="1" stop-color="#B5FF00" stop-opacity="0"/>
</linearGradient>
</defs>
</svg>
