<svg width="306" height="288" viewBox="0 0 306 288" fill="none" xmlns="http://www.w3.org/2000/svg">
<rect x="1" y="40" width="303.636" height="43.6364" rx="4" fill="black" fill-opacity="0.16"/>
<path d="M16.6256 71.3492C17.5093 70.5201 18.4147 69.7237 18.4147 68.5128C18.4147 67.2037 17.3129 66.4728 16.0038 66.4728C14.542 66.4728 13.4511 67.4001 13.4402 68.8619H14.5311C14.5311 68.0219 15.1093 67.4001 15.9493 67.4001H16.0584C16.7784 67.4001 17.3456 67.8474 17.3456 68.5674C17.3456 69.5055 16.5056 70.0728 15.8293 70.7164L13.3638 73.0619V74.2183H18.5238V73.2364H14.5856L16.6256 71.3492ZM23.108 71.3492C23.9917 70.5201 24.8971 69.7237 24.8971 68.5128C24.8971 67.2037 23.7953 66.4728 22.4862 66.4728C21.0244 66.4728 19.9335 67.4001 19.9226 68.8619H21.0135C21.0135 68.0219 21.5917 67.4001 22.4317 67.4001H22.5407C23.2607 67.4001 23.828 67.8474 23.828 68.5674C23.828 69.5055 22.988 70.0728 22.3117 70.7164L19.8462 73.0619V74.2183H25.0062V73.2364H21.068L23.108 71.3492ZM26.5249 75.7455C27.3431 75.7455 27.834 75.3092 27.834 74.4364V72.9092H26.5249V74.2183H27.1795V74.3819C27.1795 74.8183 26.9613 75.0364 26.5249 75.0364H26.1431V75.7455H26.5249ZM31.9452 74.3274C33.4398 74.3274 34.5307 73.4219 34.5307 72.2001C34.5307 71.1637 33.9089 70.5528 33.1561 70.3674C33.9089 70.1274 34.4761 69.4728 34.4761 68.491C34.4761 67.3783 33.3634 66.4728 31.9998 66.4728C30.5925 66.4728 29.5016 67.3783 29.4361 68.6001H30.4725C30.538 67.9128 31.1598 67.4001 31.8907 67.4001H31.9889C32.7961 67.4001 33.4071 67.8692 33.4071 68.6546C33.4071 69.3528 32.8725 69.9419 32.0761 69.9419H31.4216V70.8583H32.0761C32.8725 70.8583 33.4616 71.3492 33.4616 72.1455C33.4616 72.9092 32.7961 73.4001 31.9889 73.4001H31.8907C31.0834 73.4001 30.5052 72.9746 30.3525 72.2219H29.2943C29.4361 73.5092 30.4616 74.3274 31.9452 74.3274ZM39.1994 71.3492C40.083 70.5201 40.9884 69.7237 40.9884 68.5128C40.9884 67.2037 39.8866 66.4728 38.5775 66.4728C37.1157 66.4728 36.0248 67.4001 36.0139 68.8619H37.1048C37.1048 68.0219 37.683 67.4001 38.523 67.4001H38.6321C39.3521 67.4001 39.9194 67.8474 39.9194 68.5674C39.9194 69.5055 39.0794 70.0728 38.403 70.7164L35.9375 73.0619V74.2183H41.0975V73.2364H37.1594L39.1994 71.3492ZM45.4854 74.3274C47.3726 74.3274 48.4854 72.9637 48.4854 70.4001C48.4854 67.8364 47.3726 66.4728 45.4854 66.4728C43.5981 66.4728 42.4854 67.8364 42.4854 70.4001C42.4854 72.9637 43.5981 74.3274 45.4854 74.3274ZM45.4308 73.4001C44.6126 73.4001 43.5545 72.7564 43.5545 70.4001C43.5545 68.0437 44.6126 67.4001 45.4308 67.4001H45.5399C46.3581 67.4001 47.4163 68.0437 47.4163 70.4001C47.4163 72.7564 46.3581 73.4001 45.5399 73.4001H45.4308ZM51.1317 74.2183V72.9092H49.8226V74.2183H51.1317ZM55.4672 74.3274C57.3545 74.3274 58.4672 72.9637 58.4672 70.4001C58.4672 67.8364 57.3545 66.4728 55.4672 66.4728C53.5799 66.4728 52.4672 67.8364 52.4672 70.4001C52.4672 72.9637 53.5799 74.3274 55.4672 74.3274ZM55.4126 73.4001C54.5945 73.4001 53.5363 72.7564 53.5363 70.4001C53.5363 68.0437 54.5945 67.4001 55.4126 67.4001H55.5217C56.3399 67.4001 57.3981 68.0437 57.3981 70.4001C57.3981 72.7564 56.3399 73.4001 55.5217 73.4001H55.4126ZM62.9084 74.3274C64.7957 74.3274 65.9084 72.9637 65.9084 70.4001C65.9084 67.8364 64.7957 66.4728 62.9084 66.4728C61.0211 66.4728 59.9084 67.8364 59.9084 70.4001C59.9084 72.9637 61.0211 74.3274 62.9084 74.3274ZM62.8538 73.4001C62.0357 73.4001 60.9775 72.7564 60.9775 70.4001C60.9775 68.0437 62.0357 67.4001 62.8538 67.4001H62.9629C63.7811 67.4001 64.8393 68.0437 64.8393 70.4001C64.8393 72.7564 63.7811 73.4001 62.9629 73.4001H62.8538Z" fill="#909090"/>
<path d="M16.9983 60.5821C19.5346 60.5821 21.2365 59.3385 21.2365 57.3257C21.2365 55.4603 20.091 54.413 18.111 54.0203L16.2783 53.6603C15.3128 53.4639 14.7074 52.9403 14.7074 52.0566C14.7074 51.0421 15.6565 50.273 17.0801 50.273H17.2437C18.6346 50.273 19.6819 51.0912 19.7637 52.4003H21.4001C21.3183 50.1912 19.6983 48.8003 17.1619 48.8003C14.691 48.8003 13.071 50.273 13.071 52.073C13.071 53.8894 14.1346 54.9203 15.9674 55.2966L17.8001 55.673C19.011 55.9185 19.6001 56.4585 19.6001 57.3912C19.6001 58.3403 18.7655 59.1094 17.2274 59.1094H17.0637C15.3455 59.1094 14.1346 58.2912 14.1346 56.7366H12.4983C12.5801 59.273 14.2983 60.5821 16.9983 60.5821ZM31.2343 58.4385L25.9161 48.9639H23.6252V60.4185H25.2615V50.9439L30.5797 60.4185H32.8706V48.9639H31.2343V58.4385ZM40.498 54.5275L44.4253 48.9639H42.5434L39.5653 53.1857L36.6034 48.9639H34.6889L38.5998 54.5439L34.4434 60.4185H36.3253L39.5325 55.8857L42.7071 60.4185H44.6216L40.498 54.5275Z" fill="white"/>
<path opacity="0.3" d="M66.0103 51.0549L62.1286 54.925L58.2469 51.0549L57.3636 51.9381L62.1286 56.7031L66.8936 51.9381L66.0103 51.0549Z" fill="white"/>
<path d="M97.4422 63.8071L95.3695 57.5453H93.2749V65.1816H94.5731V58.8871L96.6677 65.1816H98.1949L100.246 58.8544V65.1816H101.533V57.5453H99.4604L97.4422 63.8071ZM110.29 65.1816L107.323 57.5453H105.741L102.72 65.1816H104.083L104.803 63.3162H108.196L108.916 65.1816H110.29ZM106.494 58.9089L107.738 62.138H105.25L106.494 58.9089ZM114.83 61.2325L117.371 57.5453H115.888L114.088 60.1525L112.32 57.5453H110.782L113.313 61.2762L110.619 65.1816H112.102L114.055 62.3562L115.975 65.1816H117.513L114.83 61.2325Z" fill="#909090"/>
<path d="M209.874 62.1511C211.962 60.2311 213.402 58.6951 213.402 56.3191C213.402 53.5111 211.098 51.687 207.93 51.687C204.642 51.687 202.194 53.7511 202.17 57.0871H205.026C205.05 55.3111 206.226 54.135 207.834 54.135H208.074C209.514 54.135 210.57 55.0711 210.57 56.4391C210.57 58.0231 209.37 59.0071 207.594 60.6871L202.002 65.9671V68.7271H213.642V66.2311H205.458L209.874 62.1511ZM222.859 68.9671C227.179 68.9671 229.603 65.7031 229.603 60.3271C229.603 54.9511 227.107 51.687 222.859 51.687C218.611 51.687 216.115 54.9511 216.115 60.3271C216.115 65.7031 218.539 68.9671 222.859 68.9671ZM222.739 66.5191C220.459 66.5191 218.947 64.4791 218.947 60.3271C218.947 56.1751 220.459 54.135 222.739 54.135H222.979C225.235 54.135 226.771 56.1751 226.771 60.3271C226.771 64.4791 225.235 66.5191 222.979 66.5191H222.739ZM235.18 68.7271V65.5111H231.964V68.7271H235.18ZM236.565 56.0791V59.5831L240.309 55.9591V68.7271H243.045V51.927H240.837L236.565 56.0791ZM254.171 62.1511C256.259 60.2311 257.699 58.6951 257.699 56.3191C257.699 53.5111 255.395 51.687 252.227 51.687C248.939 51.687 246.491 53.7511 246.467 57.0871H249.323C249.347 55.3111 250.523 54.135 252.131 54.135H252.371C253.811 54.135 254.867 55.0711 254.867 56.4391C254.867 58.0231 253.667 59.0071 251.891 60.6871L246.299 65.9671V68.7271H257.939V66.2311H249.755L254.171 62.1511ZM266.099 68.9671C269.507 68.9671 272.003 67.1431 272.003 64.2151C272.003 62.1511 270.659 60.7111 268.955 60.2551C270.659 59.7511 271.883 58.2871 271.883 56.271C271.883 53.7751 269.555 51.687 266.219 51.687C263.027 51.687 260.579 53.703 260.507 56.5111H263.315C263.435 55.0711 264.659 54.135 266.051 54.135H266.291C267.875 54.135 269.051 55.1191 269.051 56.5591C269.051 58.0471 267.875 59.1031 266.075 59.1031H264.875V61.5511H266.147C267.899 61.5511 269.147 62.4631 269.147 64.0231C269.147 65.3671 268.067 66.5191 266.219 66.5191H265.979C264.299 66.5191 263.243 65.6071 263.027 64.1911H260.195C260.339 67.1431 262.691 68.9671 266.099 68.9671ZM284.935 68.7271V65.1511H287.503V62.7031H284.935V51.927H282.175L274.039 62.3671V65.1511H282.223V68.7271H284.935ZM282.223 55.7431V62.7031H276.799L282.223 55.7431Z" fill="white"/>
<rect x="75.9844" y="40" width="228.652" height="43.6364" stroke="white" stroke-width="0.909091"/>
<rect x="1" y="40" width="303.636" height="43.6364" rx="4" stroke="white" stroke-width="0.909091"/>
<path d="M199.421 106.188C200.653 106.188 201.485 105.388 201.485 104.316V103.772H199.725C199.725 104.14 199.485 104.396 199.037 104.396C198.397 104.396 196.989 103.58 195.821 103.58C194.621 103.58 193.741 104.412 193.741 105.484V106.028H195.501C195.501 105.66 195.725 105.372 196.189 105.372C196.829 105.372 198.333 106.188 199.421 106.188ZM199.421 109.484C200.653 109.484 201.485 108.684 201.485 107.612V107.068H199.725C199.725 107.436 199.485 107.692 199.037 107.692C198.397 107.692 196.989 106.876 195.821 106.876C194.621 106.876 193.741 107.708 193.741 108.78V109.324H195.501C195.501 108.956 195.725 108.668 196.189 108.668C196.829 108.668 198.333 109.484 199.421 109.484ZM203.103 102.204V104.54L205.599 102.124V110.636H207.423V99.4362H205.951L203.103 102.204ZM213.784 99.2762C211.32 99.2762 209.768 100.972 209.768 103.116C209.768 105.372 211.416 106.796 213.384 106.796C214.664 106.796 215.784 106.188 216.312 105.164C216.088 107.884 214.712 109.148 213.288 109.148H213.112C212.12 109.148 211.576 108.572 211.416 107.82H209.528C209.8 109.676 211.208 110.796 213.112 110.796C215.8 110.796 218.008 108.332 218.008 104.668C218.008 101.228 216.408 99.2762 213.784 99.2762ZM213.688 105.164C212.552 105.164 211.656 104.268 211.656 103.036C211.656 101.82 212.552 100.924 213.688 100.924H213.848C215.016 100.924 215.96 101.836 215.96 103.036C215.96 104.268 215 105.164 213.848 105.164H213.688ZM221.617 110.636V108.492H219.473V110.636H221.617ZM228.653 106.252C230.045 104.972 231.005 103.948 231.005 102.364C231.005 100.492 229.469 99.2762 227.357 99.2762C225.165 99.2762 223.533 100.652 223.517 102.876H225.421C225.437 101.692 226.221 100.908 227.293 100.908H227.453C228.413 100.908 229.117 101.532 229.117 102.444C229.117 103.5 228.317 104.156 227.133 105.276L223.405 108.796V110.636H231.165V108.972H225.709L228.653 106.252ZM236.605 110.796C238.877 110.796 240.541 109.58 240.541 107.628C240.541 106.252 239.645 105.292 238.509 104.988C239.645 104.652 240.461 103.676 240.461 102.332C240.461 100.668 238.909 99.2762 236.685 99.2762C234.557 99.2762 232.925 100.62 232.877 102.492H234.749C234.829 101.532 235.645 100.908 236.573 100.908H236.733C237.789 100.908 238.573 101.564 238.573 102.524C238.573 103.516 237.789 104.22 236.589 104.22H235.789V105.852H236.637C237.805 105.852 238.637 106.46 238.637 107.5C238.637 108.396 237.917 109.164 236.685 109.164H236.525C235.405 109.164 234.701 108.556 234.557 107.612H232.669C232.765 109.58 234.333 110.796 236.605 110.796ZM249.162 110.636V108.252H250.874V106.62H249.162V99.4362H247.322L241.898 106.396V108.252H247.354V110.636H249.162ZM247.354 101.98V106.62H243.738L247.354 101.98ZM255.979 110.796C258.347 110.796 259.963 109.276 259.963 107.068C259.963 105.084 258.539 103.628 256.459 103.628C255.707 103.628 254.891 103.916 254.395 104.412L255.099 101.1H259.851V99.4362H253.675L252.299 106.172H254.075C254.571 105.532 255.339 105.26 255.947 105.26H256.107C257.211 105.26 258.075 105.98 258.075 107.148C258.075 108.364 257.227 109.164 256.075 109.164H255.915C254.827 109.164 253.979 108.588 253.803 107.58H251.915C252.107 109.564 253.771 110.796 255.979 110.796ZM263.961 110.636V108.492H261.817V110.636H263.961ZM264.884 102.204V104.54L267.38 102.124V110.636H269.204V99.4362H267.732L264.884 102.204ZM276.621 106.252C278.013 104.972 278.973 103.948 278.973 102.364C278.973 100.492 277.437 99.2762 275.325 99.2762C273.133 99.2762 271.501 100.652 271.485 102.876H273.389C273.405 101.692 274.189 100.908 275.261 100.908H275.421C276.381 100.908 277.085 101.532 277.085 102.444C277.085 103.5 276.285 104.156 275.101 105.276L271.373 108.796V110.636H279.133V108.972H273.677L276.621 106.252ZM284.574 110.796C286.846 110.796 288.51 109.58 288.51 107.628C288.51 106.252 287.614 105.292 286.478 104.988C287.614 104.652 288.43 103.676 288.43 102.332C288.43 100.668 286.878 99.2762 284.654 99.2762C282.526 99.2762 280.894 100.62 280.846 102.492H282.718C282.798 101.532 283.614 100.908 284.542 100.908H284.702C285.758 100.908 286.542 101.564 286.542 102.524C286.542 103.516 285.758 104.22 284.558 104.22H283.758V105.852H284.606C285.774 105.852 286.606 106.46 286.606 107.5C286.606 108.396 285.886 109.164 284.654 109.164H284.494C283.374 109.164 282.67 108.556 282.526 107.612H280.638C280.734 109.58 282.302 110.796 284.574 110.796Z" fill="white" fill-opacity="0.4"/>
<rect x="1" y="131.636" width="303.636" height="43.6364" rx="4" fill="#B5FF00"/>
<path d="M105.926 159.527C108.708 159.527 110.475 157.94 110.639 155.665H108.675C108.463 156.991 107.464 157.776 106.008 157.776H105.844C103.75 157.776 102.441 156.091 102.441 153.636C102.441 151.181 103.75 149.496 105.844 149.496H106.008C107.464 149.496 108.463 150.298 108.675 151.607H110.639C110.475 149.365 108.708 147.745 105.926 147.745C102.474 147.745 100.477 150.183 100.477 153.636C100.477 157.089 102.474 159.527 105.926 159.527ZM117.545 159.527C120.752 159.527 123.043 157.318 123.043 153.636C123.043 149.954 120.752 147.745 117.545 147.745C114.354 147.745 112.063 149.954 112.063 153.636C112.063 157.318 114.354 159.527 117.545 159.527ZM117.463 157.776C115.385 157.776 114.026 156.238 114.026 153.636C114.026 151.034 115.385 149.496 117.463 149.496H117.626C119.705 149.496 121.079 151.034 121.079 153.636C121.079 156.238 119.705 157.776 117.626 157.776H117.463ZM131.432 157.301L128.323 147.909H125.181V159.363H127.129V149.921L130.27 159.363H132.561L135.638 149.872V159.363H137.569V147.909H134.46L131.432 157.301ZM146.597 157.301L143.488 147.909H140.347V159.363H142.294V149.921L145.436 159.363H147.727L150.803 149.872V159.363H152.734V147.909H149.625L146.597 157.301ZM157.475 159.363V147.909H155.512V159.363H157.475ZM165.15 159.363V149.66H169.176V147.909H159.177V149.66H163.186V159.363H165.15ZM178.035 159.527C180.735 159.527 182.355 158.103 182.355 156.123C182.355 154.258 181.177 153.227 179.213 152.834L177.446 152.491C176.464 152.294 175.973 151.869 175.973 151.051C175.973 150.2 176.808 149.496 178.117 149.496H178.281C179.541 149.496 180.49 150.2 180.572 151.443H182.535C182.502 149.251 180.915 147.745 178.248 147.745C175.581 147.745 174.01 149.365 174.01 151.116C174.01 152.867 174.975 153.98 176.939 154.389L178.886 154.781C179.982 155.011 180.392 155.469 180.392 156.238C180.392 157.072 179.672 157.776 178.313 157.776H178.15C176.432 157.776 175.45 156.909 175.401 155.583H173.437C173.519 158.038 175.073 159.527 178.035 159.527ZM192.106 156.761L187.246 147.909H184.627V159.363H186.591V150.461L191.451 159.363H194.069V147.909H192.106V156.761ZM201.827 153.44L205.639 147.909H203.414L200.714 151.82L198.063 147.909H195.756L199.552 153.505L195.51 159.363H197.736L200.665 155.125L203.545 159.363H205.852L201.827 153.44Z" fill="black"/>
<rect x="1" y="131.636" width="303.636" height="43.6364" rx="4" stroke="#B5FF00" stroke-width="0.909091"/>
</svg>
