<svg width="24" height="24" viewBox="0 0 24 24" fill="none" xmlns="http://www.w3.org/2000/svg">
<circle cx="12" cy="12" r="12" fill="#8D1AAB"/>
<mask id="mask0" mask-type="alpha" maskUnits="userSpaceOnUse" x="0" y="0" width="24" height="24">
<path fill-rule="evenodd" clip-rule="evenodd" d="M0.461426 0.461548H23.5384V23.5385H0.461426V0.461548Z" fill="white"/>
</mask>
<g mask="url(#mask0)">
<path fill-rule="evenodd" clip-rule="evenodd" d="M15.0459 9.33797C14.1697 8.84193 13.2868 8.35646 12.398 7.88141C12.3092 7.834 12.1442 7.83451 12.0553 7.88211C11.1754 8.35318 10.3063 8.84256 9.42841 9.317C9.27399 9.40048 9.22905 9.50043 9.23226 9.66063C9.24154 10.1277 9.23556 10.5951 9.2356 11.0624C9.2356 11.5391 9.24399 12.0162 9.2312 12.4926C9.22648 12.6694 9.28962 12.7667 9.44952 12.853C10.3189 13.3224 11.179 13.8074 12.0511 14.2719C12.1458 14.3223 12.3224 14.3183 12.4185 14.2671C13.299 13.7971 14.1727 13.3151 15.0402 12.8237C15.1299 12.773 15.2197 12.6389 15.221 12.5424C15.2343 11.5699 15.2342 10.5971 15.2212 9.6246C15.2199 9.52625 15.135 9.3884 15.0459 9.33797Z" fill="#181818"/>
<path fill-rule="evenodd" clip-rule="evenodd" d="M16.826 14.2697C17.1553 14.4603 17.4893 14.6433 17.8125 14.8438C17.8938 14.8942 17.9957 14.9981 17.9966 15.0785C18.0088 16.168 18.0048 17.2576 18.0048 18.3871C17.9019 18.342 17.8302 18.3182 17.7661 18.2813C16.9241 17.7972 16.0796 17.3169 15.2444 16.8212C15.0646 16.7145 14.931 16.7185 14.7555 16.8222C13.9194 17.3165 13.0735 17.7942 12.2377 18.289C12.0723 18.387 11.9512 18.4002 11.7766 18.2984C9.92532 17.2192 8.06917 16.1484 6.2107 15.0815C6.05262 14.9908 5.9887 14.8905 5.98926 14.7046C5.99561 12.5607 5.99538 10.4167 5.98956 8.27281C5.98906 8.09167 6.03876 7.98275 6.20111 7.88961C8.06847 6.8183 9.93269 5.74142 11.794 4.65958C11.9441 4.57233 12.0559 4.57339 12.204 4.65941C14.057 5.73553 15.9121 6.80824 17.7712 7.8738C17.9525 7.97769 18.0123 8.09706 18.0101 8.30213C17.9994 9.26377 17.9985 10.2257 18.0105 11.1873C18.0133 11.4063 17.9447 11.53 17.7537 11.6371C16.9414 12.0924 16.1375 12.5627 15.3313 13.0288C15.2392 13.0821 15.1514 13.143 15.0234 13.2248C15.6522 13.5894 16.2388 13.9299 16.826 14.2697ZM11.9999 0.461548C5.62738 0.461548 0.461426 5.6275 0.461426 12C0.461426 18.3725 5.62738 23.5385 11.9999 23.5385C18.3724 23.5385 23.5384 18.3725 23.5384 12C23.5384 5.6275 18.3724 0.461548 11.9999 0.461548Z" fill="#181818"/>
</g>
</svg>
