<svg width="24" height="24" viewBox="0 0 24 24" fill="none" xmlns="http://www.w3.org/2000/svg">
<circle cx="12" cy="12" r="12" fill="#E04532"/>
<mask id="mask0" mask-type="alpha" maskUnits="userSpaceOnUse" x="0" y="0" width="24" height="24">
<path fill-rule="evenodd" clip-rule="evenodd" d="M0.470703 0.470581H23.5295V23.5294H0.470703V0.470581Z" fill="white"/>
</mask>
<g mask="url(#mask0)">
<path fill-rule="evenodd" clip-rule="evenodd" d="M19.2897 8.50578C18.4706 8.96384 17.6525 9.42363 16.8342 9.88315C15.9473 10.3812 15.0605 10.8794 14.1736 11.3775C14.147 11.3924 14.12 11.4068 14.0889 11.4237C14.0404 11.328 13.993 11.2343 13.944 11.1373C11.6141 12.5064 9.28786 13.8734 6.95591 15.2438C6.88214 15.1461 6.81184 15.0529 6.7388 14.9562C6.0436 15.3397 5.35184 15.7213 4.65955 16.1032C4.62712 16.0024 4.63954 15.9679 4.72376 15.919C8.82667 13.536 12.9296 11.1529 17.0325 8.7698C17.64 8.41694 18.2473 8.06387 18.8548 7.71099C18.8745 7.69954 18.8945 7.68864 18.9124 7.67852C18.9192 7.68138 18.9239 7.68189 18.926 7.68447C19.0244 7.80988 19.1632 7.87588 19.3033 7.93896C19.3409 7.9559 19.3527 7.97811 19.3519 8.01804C19.3496 8.14481 19.3482 8.27174 19.3523 8.39842C19.3541 8.45178 19.3358 8.47996 19.2897 8.50578ZM19.2996 13.8329C17.5773 14.8225 15.8557 15.8132 14.1339 16.8037C14.1208 16.8113 14.107 16.8178 14.0886 16.8274C14.0404 16.7318 13.9932 16.638 13.9446 16.5416C12.7665 17.2147 11.5925 17.8856 10.4146 18.5586C10.3653 18.4606 10.3189 18.3685 10.27 18.2715C10.1775 18.3201 10.0881 18.3667 9.99891 18.4139C9.70047 18.5719 9.40175 18.7295 9.10412 18.889C9.06416 18.9104 9.02975 18.919 8.98611 18.8995C8.93931 18.8787 8.88892 18.8659 8.82764 18.8454C12.3385 16.8253 15.8389 14.8112 19.3514 12.7902C19.3514 12.8236 19.3514 12.8424 19.3514 12.8612C19.3514 13.1551 19.3503 13.4491 19.3525 13.743C19.3529 13.788 19.3375 13.8111 19.2996 13.8329ZM19.3019 16.4973C17.5813 17.486 15.8614 18.4757 14.1412 19.4652C14.125 19.4745 14.1083 19.4828 14.0882 19.4936C14.0394 19.3972 13.9921 19.3035 13.9437 19.208C13.5345 19.4246 13.1294 19.639 12.72 19.8557C12.6484 19.7605 12.5783 19.6674 12.5058 19.571C12.4891 19.5797 12.4739 19.5864 12.46 19.5951C12.1165 19.8096 11.7722 20.0231 11.4305 20.2405C11.3742 20.2763 11.3277 20.2923 11.2714 20.2484C11.2553 20.2357 11.2346 20.2287 11.2061 20.2139C13.9213 18.6278 16.6294 17.046 19.3473 15.4585C19.349 15.4902 19.3507 15.5071 19.3507 15.5239C19.3509 15.8198 19.35 16.1157 19.3518 16.4115C19.352 16.4536 19.3383 16.4764 19.3019 16.4973ZM10.1541 19.6107C10.1022 19.5715 10.0463 19.5374 9.98096 19.4937C13.1055 17.715 16.2226 15.9405 19.3474 14.1616C19.3491 14.1897 19.3511 14.2081 19.3512 14.2265C19.3514 14.4993 19.3506 14.7722 19.3521 15.045C19.3523 15.0843 19.3402 15.1064 19.3053 15.1265C17.578 16.1192 15.8513 17.113 14.1246 18.1066C14.1147 18.1123 14.1043 18.117 14.0889 18.1249C14.041 18.0301 13.9938 17.9366 13.9444 17.8389C13.15 18.2962 12.3604 18.7507 11.5675 19.2072C11.5188 19.1106 11.4722 19.0185 11.4236 18.9222C11.4065 18.9311 11.3916 18.938 11.3775 18.9463C11.0003 19.1679 10.6227 19.3892 10.2463 19.6123C10.2118 19.6328 10.1871 19.6356 10.1541 19.6107ZM7.81681 18.2459C7.77512 18.2272 7.73029 18.2155 7.6748 18.1966C11.5681 15.9614 15.4526 13.7312 19.3469 11.4955C19.3488 11.524 19.3508 11.5406 19.3508 11.5573C19.351 11.8321 19.3503 12.1069 19.3517 12.3817C19.3519 12.4191 19.34 12.44 19.3072 12.4589C17.5814 13.4507 15.8562 14.4435 14.1308 15.4361C14.1192 15.4428 14.1072 15.4487 14.0888 15.4585C14.0412 15.3646 13.9939 15.2715 13.9438 15.1727C12.3829 16.0852 10.8246 16.9962 9.26145 17.9101C9.2127 17.8134 9.16633 17.7215 9.11789 17.6255C9.10061 17.6334 9.08524 17.6394 9.07076 17.6471C8.70091 17.8426 8.33061 18.0373 7.96201 18.2352C7.91187 18.2621 7.86872 18.2692 7.81681 18.2459ZM6.78528 17.5944C6.75278 17.6158 6.72475 17.6193 6.68907 17.605C6.63966 17.5852 6.58821 17.5704 6.52197 17.5482C10.8014 15.0717 15.0696 12.6017 19.3479 10.1259C19.3494 10.1559 19.3512 10.1745 19.3512 10.193C19.3514 10.464 19.3505 10.7349 19.3522 11.0058C19.3525 11.047 19.3408 11.071 19.304 11.0926C17.5818 12.1058 15.8603 13.12 14.1386 14.134C14.1239 14.1427 14.1088 14.1504 14.0886 14.1615C14.0402 14.0654 13.993 13.9719 13.9443 13.8755C11.997 14.9814 10.0546 16.0845 8.10874 17.1896C8.03576 17.0926 7.96451 16.9979 7.89217 16.9018C7.61814 17.0731 7.34797 17.2418 7.07783 17.4106C6.98013 17.4716 6.88152 17.5312 6.78528 17.5944ZM5.6271 16.9491C5.59618 16.9691 5.57474 16.9682 5.54574 16.9469C5.4905 16.9065 5.43228 16.8702 5.36865 16.8277C10.0306 14.1601 14.6841 11.4973 19.3472 8.82914C19.3488 8.85763 19.3508 8.87585 19.3508 8.89407C19.351 9.1669 19.3502 9.43973 19.3518 9.71255C19.352 9.75222 19.3393 9.77415 19.3048 9.79404C17.5793 10.7858 15.8543 11.7784 14.1292 12.7709C14.1177 12.7775 14.1055 12.783 14.0881 12.7918C14.0388 12.6941 13.9922 12.6019 13.944 12.5063C11.5898 13.8515 9.2392 15.1948 6.88378 16.5407C6.83461 16.4437 6.7872 16.35 6.73833 16.2536C6.48745 16.4103 6.24012 16.5648 5.99281 16.7193C5.87073 16.7956 5.74791 16.8708 5.6271 16.9491ZM4.72595 13.2522C8.02099 11.3464 11.316 9.44061 14.611 7.53477C15.2591 7.15996 15.9073 6.78548 16.5546 6.40939C16.5958 6.38546 16.6281 6.38121 16.6699 6.40611C16.9304 6.56125 17.192 6.71447 17.4534 6.86821C17.46 6.87213 17.4676 6.87456 17.4829 6.88124C15.9593 7.72772 14.4499 8.56634 12.9372 9.40675C12.8882 9.33471 12.8411 9.26531 12.7913 9.19202C12.7182 9.23342 12.6485 9.27284 12.5788 9.31238C10.7279 10.3635 8.87675 11.4143 7.02671 12.467C6.97232 12.498 6.93897 12.4998 6.8981 12.4501C6.85075 12.3925 6.79569 12.3413 6.74388 12.2872C6.04437 12.6731 5.3526 13.0547 4.65984 13.4369C4.6284 13.3338 4.64067 13.3016 4.72595 13.2522ZM4.72694 10.5852C7.53737 8.97004 10.3478 7.35495 13.1582 5.73983C13.526 5.5285 13.894 5.31773 14.2612 5.10546C14.2927 5.0873 14.3165 5.08438 14.3503 5.10176C14.4201 5.13753 14.4915 5.17194 14.5656 5.1973C14.7728 5.26822 14.9567 5.38266 15.1414 5.49598C15.1494 5.50087 15.1564 5.50728 15.1688 5.51672C13.6558 6.3813 12.1466 7.24376 10.6308 8.10999C10.5807 8.01091 10.5341 7.91892 10.4854 7.82258C9.30775 8.51951 8.13402 9.21417 6.95591 9.91141C6.88254 9.81416 6.81129 9.71967 6.73898 9.62379C6.04378 10.0073 5.35226 10.3888 4.65943 10.7709C4.62909 10.6624 4.63966 10.6353 4.72694 10.5852ZM4.72684 7.91878C7.1328 6.52704 9.53883 5.13545 11.9441 3.74262C11.986 3.71838 12.0169 3.71772 12.0592 3.74034C12.3088 3.87349 12.5482 4.02188 12.7692 4.19892C12.7748 4.20338 12.7792 4.20928 12.7896 4.22024C11.301 5.08467 9.81619 5.94685 8.32515 6.81268C8.27668 6.71725 8.2294 6.6241 8.17938 6.52558C7.771 6.74164 7.36489 6.95652 6.95365 7.17413C6.89358 7.11305 6.83272 7.05453 6.77608 6.99215C6.74853 6.96177 6.72819 6.96223 6.69338 6.98148C6.03363 7.34697 5.37299 7.71094 4.71254 8.07516C4.69471 8.085 4.67643 8.09399 4.65726 8.10395C4.63121 7.98836 4.63843 7.96992 4.72684 7.91878ZM13.1913 4.39801C13.2566 4.48336 13.3457 4.53256 13.4468 4.56445C13.6522 4.62926 13.827 4.75193 14.02 4.86598C12.5016 5.73366 10.992 6.59636 9.47793 7.46158C9.42943 7.36533 9.38305 7.27327 9.33304 7.17399C8.53911 7.63099 7.74867 8.08601 6.95583 8.54241C6.88298 8.44552 6.81276 8.35216 6.73942 8.25457C6.04471 8.66176 5.35215 9.06765 4.64888 9.47985C4.64888 9.40623 4.64575 9.34345 4.65097 9.28137C4.65237 9.26476 4.67676 9.2459 4.69486 9.23545C5.10008 9.00074 5.50589 8.767 5.9116 8.53323C7.77069 7.46194 9.62978 6.39068 11.4888 5.31945C12.0276 5.009 12.5666 4.69893 13.1047 4.38726C13.1407 4.36643 13.1646 4.36312 13.1913 4.39801ZM15.414 5.75399C15.446 5.73543 15.4713 5.73166 15.5037 5.7508C15.5581 5.78302 15.6168 5.80823 15.6697 5.84258C15.8573 5.96431 16.0551 6.06459 16.2659 6.13922C16.2815 6.14474 16.2964 6.15252 16.3232 6.16442C14.8058 7.03159 13.2972 7.89371 11.7837 8.75863C11.7353 8.68644 11.6886 8.61674 11.639 8.54284C10.0777 9.43154 8.51898 10.3188 6.95609 11.2085C6.88232 11.1106 6.81317 11.0188 6.73934 10.9208C6.04508 11.3277 5.35259 11.7336 4.64937 12.1457C4.64937 12.0703 4.64615 12.0057 4.65165 11.9418C4.65302 11.926 4.68093 11.9095 4.69973 11.8987C5.42043 11.4848 6.14157 11.0717 6.86255 10.6583C9.44845 9.17563 12.0343 7.69293 14.6202 6.21023C14.885 6.05843 15.1501 5.90718 15.414 5.75399ZM17.8111 7.05555C18.0488 7.1958 18.2889 7.33208 18.5281 7.46994C18.5595 7.48807 18.59 7.50775 18.6307 7.53268C17.114 8.39939 15.6043 9.26215 14.0893 10.1279C14.0407 10.0314 13.9943 9.93931 13.9443 9.84018C11.6141 11.1855 9.28674 12.5291 6.95591 13.8748C6.88291 13.7779 6.81272 13.6846 6.73919 13.587C6.04521 13.9938 5.3539 14.399 4.64969 14.8118C4.64969 14.7359 4.64695 14.6701 4.65184 14.605C4.65291 14.5909 4.67991 14.5765 4.69737 14.5664C5.25068 14.2464 5.80426 13.9269 6.35787 13.6075C10.1433 11.4233 13.9288 9.23925 17.7139 7.0543C17.7499 7.03353 17.774 7.03368 17.8111 7.05555ZM23.5131 11.4333C23.3649 8.80247 22.4451 6.47468 20.7287 4.47454C19.2723 2.77745 17.4595 1.61434 15.3213 0.96066C14.6369 0.751462 13.9376 0.612938 13.2257 0.53707C12.5611 0.466274 11.8955 0.450572 11.229 0.496919C9.60043 0.610174 8.06183 1.04351 6.61781 1.80626C5.19534 2.55765 3.98216 3.56313 2.98026 4.82199C1.94789 6.11913 1.23113 7.57346 0.822234 9.17941C0.657053 9.82821 0.550029 10.4869 0.504019 11.155C0.493997 11.3007 0.488166 11.4465 0.479784 11.5923C0.478356 11.6168 0.473801 11.6411 0.470703 11.6655C0.470703 11.8884 0.470703 12.1113 0.470703 12.3342C0.477749 12.443 0.485797 12.5518 0.491719 12.6607C0.52959 13.3566 0.631785 14.0431 0.797696 14.7197C1.23851 16.5174 2.06011 18.1207 3.26677 19.5241C4.25166 20.6695 5.42017 21.5837 6.76583 22.2707C7.7131 22.7544 8.70911 23.0987 9.75168 23.3068C10.3627 23.4287 10.98 23.5018 11.6034 23.5205C11.6241 23.5211 11.6447 23.5263 11.6653 23.5294C11.8882 23.5294 12.1111 23.5294 12.334 23.5294C12.4468 23.5221 12.5595 23.5138 12.6723 23.5075C13.3989 23.4668 14.1151 23.3566 14.8202 23.1774C16.4712 22.7577 17.9598 22.0126 19.2806 20.9366C20.5309 19.918 21.5233 18.6892 22.2594 17.254C22.7823 16.2344 23.1436 15.1602 23.3459 14.0323C23.5001 13.1722 23.5621 12.3055 23.5131 11.4333Z" fill="#1A1919"/>
</g>
</svg>
