<svg width="24" height="24" viewBox="0 0 24 24" fill="none" xmlns="http://www.w3.org/2000/svg">
<circle cx="12" cy="12" r="12" fill="#518FFF"/>
<mask id="mask0" mask-type="alpha" maskUnits="userSpaceOnUse" x="0" y="0" width="24" height="24">
<path fill-rule="evenodd" clip-rule="evenodd" d="M0.479492 0.480042H23.5195V23.52H0.479492V0.480042Z" fill="white"/>
</mask>
<g mask="url(#mask0)">
<path fill-rule="evenodd" clip-rule="evenodd" d="M9.37083 10.5617C9.38012 10.5533 9.38623 10.5489 9.39078 10.5434C9.88882 9.93657 10.3866 9.3295 10.8854 8.72333C10.9087 8.69494 10.9008 8.67878 10.8813 8.65528C10.7639 8.51336 10.6496 8.36868 10.5303 8.22829C10.3279 7.99008 10.1368 7.7399 9.91547 7.52047C9.37429 6.98399 8.71841 6.71667 7.95037 6.72121C6.8985 6.72747 5.84658 6.72278 4.79468 6.72278C4.67287 6.72278 4.65777 6.7376 4.65777 6.85794C4.65769 7.5126 4.65771 8.16722 4.65774 8.82188C4.65774 8.83723 4.65797 8.8526 4.65816 8.86795C4.65892 8.92163 4.69025 8.94803 4.73956 8.95545C4.76211 8.95886 4.7855 8.95732 4.80852 8.95732C5.79707 8.95738 6.78565 8.95914 7.7742 8.95587C7.96982 8.9552 8.11982 9.02383 8.24247 9.17686C8.56417 9.57823 8.89162 9.975 9.21681 10.3735C9.26744 10.4356 9.31828 10.4976 9.37083 10.5617ZM12.0095 13.7778C12.0281 13.7987 12.0411 13.8123 12.053 13.8268C12.5446 14.4267 13.0351 15.0275 13.5281 15.6263C13.7305 15.8721 13.9208 16.1283 14.1571 16.345C14.6878 16.8319 15.3079 17.0864 16.0318 17.0848C17.0935 17.0824 18.1552 17.0842 19.2169 17.0841C19.3221 17.0841 19.3369 17.0695 19.3369 16.9651C19.3369 16.2988 19.3369 15.6325 19.3369 14.9662C19.3369 14.8569 19.32 14.8403 19.2094 14.8403C18.2091 14.8403 17.2088 14.8393 16.2085 14.8413C16.0345 14.8416 15.8969 14.7783 15.7874 14.6445C15.0505 13.7442 14.3132 12.8443 13.5746 11.9454C13.5425 11.9063 13.5444 11.8833 13.5758 11.8452C14.307 10.9576 15.0378 10.0697 15.7656 9.17945C15.8904 9.02675 16.0395 8.95466 16.2385 8.9555C17.2311 8.9596 18.2237 8.95737 19.2163 8.95734C19.3237 8.95734 19.3388 8.94238 19.3388 8.83415C19.3389 8.16978 19.3389 7.50541 19.3389 6.84102C19.3389 6.7298 19.3321 6.7228 19.222 6.7228C18.1699 6.72277 17.1177 6.72151 16.0656 6.72414C15.9068 6.72453 15.7464 6.73181 15.5896 6.75534C14.8785 6.86201 14.3037 7.21722 13.8535 7.76523C11.9805 10.0453 10.1137 12.3305 8.24625 14.6152C8.12022 14.7693 7.9683 14.8426 7.76799 14.8419C6.77732 14.8384 5.78665 14.8403 4.79598 14.8403C4.6848 14.8403 4.67048 14.8546 4.67048 14.9668C4.6704 15.635 4.6704 16.3032 4.67043 16.9714C4.67045 17.0691 4.68566 17.0841 4.78459 17.0841C5.85206 17.0842 6.91953 17.086 7.987 17.0822C8.15508 17.0817 8.3252 17.0683 8.49071 17.0398C9.1635 16.9235 9.70404 16.5731 10.1373 16.0587C10.6493 15.4509 11.1466 14.8307 11.6503 14.216C11.7682 14.0721 11.8862 13.9283 12.0095 13.7778ZM11.642 0.480042C11.8801 0.480042 12.1182 0.480042 12.3563 0.480042C12.3769 0.483056 12.3975 0.488107 12.4181 0.488777C13.091 0.511133 13.7568 0.593104 14.4142 0.73656C16.3315 1.15487 18.0412 1.9966 19.5243 3.28252C21.2908 4.8141 22.482 6.71395 23.1079 8.9668C23.3275 9.75692 23.4554 10.5626 23.4979 11.3817C23.5047 11.5116 23.5123 11.6415 23.5195 11.7715C23.5195 11.9251 23.5195 12.0787 23.5195 12.2323C23.5162 12.2663 23.5108 12.3002 23.51 12.3343C23.4972 12.83 23.4484 13.3221 23.3714 13.8119C23.2424 14.6315 23.0257 15.4272 22.7227 16.1991C22.1295 17.7098 21.2597 19.0404 20.1051 20.1812C18.6109 21.6576 16.8421 22.6516 14.8073 23.1716C14.1197 23.3473 13.4208 23.4536 12.7127 23.498C12.2621 23.5262 11.8113 23.5272 11.3602 23.5019C10.8595 23.4737 10.363 23.4132 9.8703 23.3213C9.287 23.2125 8.71582 23.058 8.15655 22.8596C6.9604 22.4352 5.8626 21.8319 4.86629 21.0455C3.74192 20.158 2.81208 19.0988 2.08515 17.8643C1.05594 16.1164 0.523017 14.2261 0.4818 12.1984C0.463688 11.3084 0.552347 10.4278 0.742555 9.55776C1.09931 7.92596 1.7762 6.43959 2.77494 5.10118C3.6234 3.96413 4.64976 3.01766 5.84895 2.25993C6.87654 1.61064 7.98046 1.13707 9.15835 0.836589C9.86664 0.655901 10.5856 0.54348 11.3154 0.501504C11.4244 0.495252 11.5332 0.487242 11.642 0.480042Z" fill="#1A1919"/>
</g>
</svg>
